<svg xmlns="http://www.w3.org/2000/svg" version="1.1" xmlns:xlink="http://www.w3.org/1999/xlink" xmlns:svgjs="http://svgjs.dev/svgjs" width="1000" height="750" viewBox="0 0 1000 750"><rect width="1000" height="750" fill="#ffffff"></rect><g transform="matrix(0.834,0,0,0.834,82.49454545454546,115.4193570850203)"><svg viewBox="0 0 396 247" data-background-color="#ffffff" preserveAspectRatio="xMidYMid meet" height="623" width="1000" xmlns="http://www.w3.org/2000/svg" xmlns:xlink="http://www.w3.org/1999/xlink"><g id="tight-bounds" transform="matrix(1,0,0,1,0.2400000000000091,-0.09999999999999432)"><svg viewBox="0 0 395.52 247.2" height="247.2" width="395.52"><g><svg></svg></g><g><svg viewBox="0 0 395.52 247.2" height="247.2" width="395.52"><g transform="matrix(1,0,0,1,82.4922559109875,47.215199999999996)"><svg viewBox="0 0 230.535488178025 152.7696" height="152.7696" width="230.535488178025"><g><svg viewBox="0 0 230.535488178025 152.7696" height="152.7696" width="230.535488178025"><g><svg viewBox="0 0 230.535488178025 152.7696" height="152.7696" width="230.535488178025"><g><svg viewBox="0 0 230.535488178025 152.7696" height="152.7696" width="230.535488178025"><g id="textblocktransform"><svg viewBox="0 0 230.535488178025 152.7696" height="152.7696" width="230.535488178025" id="textblock"><g><svg viewBox="0 0 230.535488178025 152.7696" height="152.7696" width="230.535488178025"><g transform="matrix(1,0,0,1,0,0)"><svg width="230.535488178025" viewBox="2.549999952316284 -35.29999923706055 54.25 35.95000076293945" height="152.7696" data-palette-color="#31c48d"><path d="M13.75 0.65Q8.2 0.65 5.38-1.43 2.55-3.5 2.55-6.75L2.55-6.75Q2.55-9.65 5.35-9.65L5.35-9.65Q5.9-9.65 6.25-9.6L6.25-9.6Q6-8.85 6.1-7.5L6.1-7.5Q6.25-4.6 8.38-2.9 10.5-1.2 14.15-1.2L14.15-1.2Q17.45-1.2 19.43-2.75 21.4-4.3 21.4-7.3L21.4-7.3Q21.4-9.25 20.53-10.65 19.65-12.05 18.03-13.25 16.4-14.45 13.4-16.1L13.4-16.1Q10-18 8.05-19.43 6.1-20.85 4.95-22.7 3.8-24.55 3.8-27.1L3.8-27.1Q3.8-31.2 6.8-33.25 9.8-35.3 14.4-35.3L14.4-35.3Q18.9-35.3 21.63-33.65 24.35-32 24.35-29.1L24.35-29.1Q24.35-27 22.35-26.8L22.35-26.8Q21.95-26.7 21.7-26.7L21.7-26.7Q21.4-26.7 20.8-26.8L20.8-26.8Q20.95-27.35 20.95-27.8L20.95-27.8Q20.95-28.4 20.8-28.9L20.8-28.9Q20.6-31.05 18.75-32.25 16.9-33.45 14-33.45L14-33.45Q11.35-33.45 9.47-32.25 7.6-31.05 7.6-28.35L7.6-28.35Q7.6-26.45 8.55-25.03 9.5-23.6 11.1-22.5 12.7-21.4 15.65-19.75L15.65-19.75Q18.8-18.05 20.85-16.55 22.9-15.05 24.15-13.05 25.4-11.05 25.4-8.4L25.4-8.4Q25.4-6 24.23-3.95 23.05-1.9 20.45-0.63 17.85 0.65 13.75 0.65L13.75 0.65ZM34.8 0Q33.7 0 33.1-0.6 32.5-1.2 32.5-2.2L32.5-2.2 32.4-28.85Q32.4-30.95 32.32-32.4 32.25-33.85 31.9-34.85L31.9-34.85Q35.7-35.2 42.3-35.2L42.3-35.2Q49.35-35.2 53.07-30.78 56.8-26.35 56.8-17.55L56.8-17.55Q56.8 0 42.5 0L42.5 0 34.8 0ZM36.45-1.85L42.3-1.85Q47.35-1.85 49.87-5.5 52.4-9.15 52.4-17.3L52.4-17.3Q52.4-25.5 49.85-29.4 47.3-33.3 42.3-33.3L42.3-33.3 36.4-33.3 36.45-1.85Z" opacity="1" transform="matrix(1,0,0,1,0,0)" fill="#31c48d" class="wordmark-text-0" data-fill-palette-color="primary" id="text-0"></path></svg></g></svg></g></svg></g></svg></g></svg></g></svg></g></svg></g><path d="M130.726 41.215L130.726 0 377.926 0 377.926 247.2 130.726 247.2 130.726 205.985 144.503 205.985 144.503 233.423 364.15 233.423 364.15 13.777 144.503 13.777 144.503 41.215Z" fill="#31c48d" stroke="transparent" data-fill-palette-color="primary"></path></svg></g><defs></defs></svg><rect width="395.52" height="247.2" fill="none" stroke="none" visibility="hidden"></rect></g></svg></g></svg>